<svg width="50" height="39" viewBox="0 0 50 39" fill="none" xmlns="http://www.w3.org/2000/svg">
<path d="M0.464161 0.292936C1.28831 0.114663 2.01748 0.0489064 2.71888 0.0182201C3.42028 -0.0183113 4.07493 0.00506876 4.71349 0.0445227C5.9804 0.139504 7.13918 0.360154 8.21028 0.686014C10.3525 1.33335 12.1674 2.36938 13.7309 3.70059C15.293 5.03325 16.611 6.65524 17.5988 8.66593C18.0957 9.66981 18.5048 10.7745 18.8058 12.0064C18.949 12.6318 19.0806 13.2689 19.1609 13.9688C19.2267 14.5037 19.2734 15.0604 19.2749 15.6697C19.3918 15.7326 19.5087 15.8042 19.6227 15.8816C19.6227 15.8816 23.5842 18.1144 25.4122 18.1656C27.2402 18.2109 24.1263 19.2688 24.6509 19.9907C25.0586 20.5533 21.3236 17.999 19.0733 16.2674C19.0703 16.2674 19.0674 16.2674 19.0645 16.2703C11.9774 11.2918 4.18013 3.68743 4.18013 3.68743C4.18013 3.68743 12.8965 15.0355 17.4454 16.4778C17.3022 16.4866 17.159 16.4939 17.0187 16.5012C16.3159 16.5377 15.6627 16.5129 15.0241 16.4705C13.7601 16.3755 12.6014 16.1505 11.5317 15.8275C9.38659 15.1831 7.57025 14.1486 5.9994 12.8247C4.42855 11.4993 3.1105 9.87877 2.12123 7.87101C1.62294 6.87005 1.21817 5.76242 0.915689 4.52766C0.771025 3.9037 0.640974 3.26367 0.563527 2.56227C0.475852 1.86525 0.423246 1.13608 0.464161 0.292936Z" fill="#FFFBED"/>
<path d="M49.3857 0.292936C48.5615 0.114663 47.8324 0.0489064 47.131 0.0182201C46.4296 -0.0183113 45.7749 0.00506876 45.1364 0.0445227C43.8695 0.139504 42.7107 0.360154 41.6396 0.686014C39.4974 1.33335 37.6825 2.36938 36.1189 3.70059C34.5569 5.03325 33.2388 6.65524 32.251 8.66593C31.7542 9.66981 31.345 10.7745 31.044 12.0064C30.9008 12.6318 30.7693 13.2689 30.6889 13.9688C30.6232 14.5037 30.5764 15.0604 30.5749 15.6697C30.458 15.7326 30.3411 15.8042 30.2272 15.8816C30.2272 15.8816 26.2657 18.1144 24.4377 18.1656C22.6096 18.2109 25.7236 19.2688 25.199 19.9907C24.7913 20.5533 28.5263 17.999 30.7766 16.2674C30.7795 16.2674 30.7824 16.2674 30.7854 16.2703C37.8725 11.2918 45.6697 3.68743 45.6697 3.68743C45.6697 3.68743 36.9533 15.0355 32.4044 16.4778C32.5476 16.4866 32.6908 16.4939 32.8311 16.5012C33.534 16.5377 34.1872 16.5129 34.8257 16.4705C36.0897 16.3755 37.2485 16.1505 38.3181 15.8275C40.4633 15.1831 42.2796 14.1486 43.8505 12.8247C45.4213 11.4993 46.7394 9.87877 47.7286 7.87101C48.2269 6.87005 48.6317 5.76242 48.9342 4.52766C49.0788 3.9037 49.2089 3.26367 49.2863 2.56227C49.374 1.86525 49.4266 1.13608 49.3857 0.292936Z" fill="#FFFBED"/>
<path d="M49.986 38.2319C49.1619 38.4102 48.4327 38.4759 47.7313 38.5066C47.0299 38.5432 46.3753 38.5198 45.7367 38.4803C44.4698 38.3854 43.311 38.1647 42.2399 37.8388C40.0977 37.1915 38.2828 36.1555 36.7193 34.8243C35.1572 33.4916 33.8392 31.8696 32.8513 29.8589C32.3545 28.855 31.9454 27.7503 31.6443 26.5185C31.5011 25.8931 31.3696 25.256 31.2893 24.556C31.2235 24.0212 31.1767 23.4645 31.1753 22.8551C31.0584 22.7923 30.9415 22.7207 30.8275 22.6432C30.8275 22.6432 26.866 20.4104 25.038 20.3593C23.21 20.314 26.3239 19.256 25.7993 18.5342C25.3916 17.9716 29.1266 20.5259 31.3769 22.2575C31.3799 22.2575 31.3828 22.2575 31.3857 22.2545C38.4728 27.233 46.2701 34.8374 46.2701 34.8374C46.2701 34.8374 37.5537 23.4893 33.0048 22.047C33.148 22.0383 33.2912 22.031 33.4315 22.0237C34.1343 21.9871 34.7875 22.012 35.4261 22.0544C36.6901 22.1493 37.8488 22.3744 38.9185 22.6973C41.0636 23.3417 42.8799 24.3763 44.4508 25.7002C46.0216 27.0255 47.3397 28.6461 48.329 30.6538C48.8273 31.6548 49.232 32.7624 49.5345 33.9972C49.6792 34.6212 49.8092 35.2612 49.8867 35.9626C49.9743 36.6596 50.0269 37.3888 49.986 38.2319Z" fill="#FFFBED"/>
<path d="M0.0139656 38.2319C0.838114 38.4102 1.56728 38.4759 2.26868 38.5066C2.97009 38.5432 3.62473 38.5198 4.2633 38.4803C5.53021 38.3854 6.68898 38.1647 7.76008 37.8388C9.90229 37.1915 11.7172 36.1555 13.2807 34.8243C14.8428 33.4916 16.1608 31.8696 17.1487 29.8589C17.6455 28.855 18.0546 27.7503 18.3557 26.5185C18.4989 25.8931 18.6304 25.256 18.7107 24.556C18.7765 24.0212 18.8233 23.4645 18.8247 22.8551C18.9416 22.7923 19.0585 22.7207 19.1725 22.6432C19.1725 22.6432 23.134 20.4104 24.962 20.3593C26.79 20.314 23.6761 19.256 24.2007 18.5342C24.6084 17.9716 20.8734 20.5259 18.6231 22.2575C18.6201 22.2575 18.6172 22.2575 18.6143 22.2545C11.5272 27.233 3.72994 34.8374 3.72994 34.8374C3.72994 34.8374 12.4463 23.4893 16.9952 22.047C16.852 22.0383 16.7088 22.031 16.5685 22.0237C15.8657 21.9871 15.2125 22.012 14.5739 22.0544C13.3099 22.1493 12.1512 22.3744 11.0815 22.6973C8.9364 23.3417 7.12006 24.3763 5.54921 25.7002C3.97836 27.0255 2.6603 28.6461 1.67103 30.6538C1.17274 31.6548 0.767974 32.7624 0.465494 33.9972C0.32083 34.6212 0.190779 35.2612 0.113332 35.9626C0.0256569 36.6596 -0.0269495 37.3888 0.0139656 38.2319Z" fill="#FFFBED"/>
</svg>
